<svg version="1.1" id="Capa_1" xmlns="http://www.w3.org/2000/svg" xmlns:xlink="http://www.w3.org/1999/xlink" x="0px" y="0px" viewBox="0 0 24 24" style="enable-background:new 0 0 187.484 187.484;" xml:space="preserve" width="24" height="24"><g fill="white"><path cx="93.742" cy="93.742" r="35.898" d="M16.595 12A4.595 4.595 0 0 1 12 16.595A4.595 4.595 0 0 1 7.405 12A4.595 4.595 0 0 1 16.595 12z"/><path d="M23.36 11.36h-0.718c-0.32 -5.37 -4.631 -9.682 -10.002 -10.002V0.64a0.64 0.64 0 1 0 -1.28 0v0.718C5.99 1.678 1.678 5.99 1.358 11.36H0.64a0.64 0.64 0 1 0 0 1.28h0.718c0.32 5.37 4.631 9.682 10.002 10.002v0.718a0.64 0.64 0 1 0 1.28 0v-0.718c5.37 -0.32 9.682 -4.631 10.002 -10.002h0.718a0.64 0.64 0 1 0 0 -1.28m-10.72 9.357v-1.104a0.64 0.64 0 1 0 -1.28 0v1.104C7.049 20.403 3.597 16.951 3.283 12.64h1.104a0.64 0.64 0 1 0 0 -1.28h-1.104C3.597 7.049 7.049 3.597 11.36 3.283v1.104a0.64 0.64 0 1 0 1.28 0v-1.104c4.311 0.314 7.763 3.766 8.077 8.077h-1.104a0.64 0.64 0 1 0 0 1.28h1.104c-0.314 4.311 -3.766 7.763 -8.077 8.077"/></g></svg>